/* XPM */
static char *tyrant_xpm[] = {
/* columns rows colors chars-per-pixel */
"64 64 5 1 ",
"  c black",
". c #FFFF53",
"X c #FF62FF",
"o c #D7D8B8",
"O c white",
/* pixels */
"                                                                ",
" OOOOOOOOOOOOOOOOOOOO XXX OOOOOOOo XXX OOOOOOOOOOOOOOOOOOOOOOOO ",
" OOOOOOOOOOOOOOOOOOOO XXX OOOOOOOo XXX OOOOOOOOOOOOOOOOOOOOOOOO ",
" OOOOOOOOOOOOOOOOOOOO XXX OOOOOOOo XX OOOOOOOOOOOOOOOOOOOOOOOOO ",
" OOOOOOOOOOOOOOOOOOOO XXX OOOOOOOo XX OOOOOOOOOOOOOOOOOOOOOOOOO ",
" OOOOOOOOOOOOOOOOOOOO XXX OOOOOOO XXX OOOOOOOOOOOOOOOOOOOOOOOOO ",
" OOOOOOOOOOOOOOOOOOOO XXX OOOOOO XXX OOOOOOOOOOOOOOOOOOOOOOOOOO ",
" OOOOOOOOOOOOOOOOOOOO XXX OOOOO XXXX OOOOOOOOOOOOOOOOOOOOOOOOOO ",
" OOOOOOOOOOOOOOOOOOOO XXX OOOO XXXX OOOOOOOOOOOOOOOOOOOOOOOOOOO ",
" OOOOOOOOOOOOOOOOOOOO XXX OOO XXXX OOOOOOOOOOOOOOOOOOOOOOOOOOOO ",
" OOOOOOOOOOOOOOOOOOOOO XX O  XXXXX OOOOOOOOOOOOOOOOOOOOOOOOOOOO ",
" OOOOOOOOOOOOOOOOOOOOO XX  XXXXXX oOOOOOOOOOOOOO   OOOOOOOOOOOO ",
" OOOOOOOOOOOOOOOOOOOOO XX XXXXXX OOOOOOOOOOOOOOO . OOOOOOOOOOOO ",
" OOOOOOOOOOOOOOOOOOOOO XXXXXXXX oOOOOOOOOOOOOOOO .. OOOOOOOOOOO ",
" OOOOOOOOOOOOOOOOOOOOO XXXXXXXX OOOOOOOOOOOOOOOO .. OOOOOOOOOOO ",
" OOOOOOOOOOOOOOOOOOOO XXXXXXXX OOOOOOOOOOOOOOOOO ... OOOOOOOOOO ",
" OOOOOOOOOOOOOOOOOOO XXXXXXX  OOOOOOOOOOOOOOOOOO ....  OOOOOOOO ",
" OOOOOOOOOOOOOOOOOO XXXXXXX ooOOOOOOOOOOOOOOOOOO .. ... OOOOOOO ",
" OOOOOOOOOOOOOOOOO XXXXXXXX OOOOOOOOOOOOOOOOOOOO ..   . OOOOOOO ",
" OOOOOOOOOOOOOOOO XXXXXXXX oOOOOOOOOOOOOOOOOOOOO .. o . OOOOOOO ",
" OOOOOOOOOOOOOOO XXXXXX XX OOOOOOOOOOOOOOOOOOOOo .. o . OOOOOOO ",
" OOOOOOOOOOOOOO XXXXXX  XX OOOOOOOOOOOOOOOOOOOOo .. o . OOOOOOO ",
" OOOOOOOOOOOOO XXXXXX   XX OOOOOOOOOOOOOOOOOOOOo .. o . OOOOOOO ",
" OOOOOOOOOOOO XXXXXX  o XX OOOOOOOOOOOOOOOOOOOOo .. o . OOOOOOO ",
" OOOOOOOOOOO XXXXXX  oo XX OOOOOOOOOOOOOOOOOOOOo .. o  OOOOOOOO ",
" OOOOOOOOOO XXXXXX  ooo XX OOOOOOOOOOOOOOOOOOO   .. o OOOOOOOOO ",
" OOOOOOOOO XXXXXX  Oooo XX OOOOOOOOOOOOOOOOOO ..... oOOOOOOOOOO ",
" OOOOOOOOO XXXXXX OOOOo XX      OOOOOOOOOOOO ...... oOOOOOOOOOO ",
" OOOOOOOO XXXXXX OOOOOo XXXXXXXX    OOOOOOO ....... OOOOOOOOOOO ",
" OOOOOOO XXXXXX OOOOOO  XXXXXXXXXXXX  OOOOo ...... OOOOOOOOOOOO ",
" OOOOOO XXXXXX  OOOOO XXXXXXXXXXXXXXXX OOoo ..... OOOOOOOOOOOOO ",
" OOOOOo XXXXX  OOOOO XXXXXXXXXXXXXXXXXX OOoo     OOOOOOOOOOOOOO ",
" OOOOoo XXXXX OOOO  XXXXXXXXXXXXXXXXXXX OOooooooOOOOOOOOOOOOOOO ",
" OOOOo XXXXX OOOO XXXXXXXXXXXXXXXXXXXXXX  OoooooOOOOOOOOOOOOOOO ",
" OOOoo XXXXX OOOO XXXXXXXXXXX   XXXXXXXXX OOOOOOOOOOOOOOOOOOOOO ",
" OOOoo XXXXX OOO XXXX      X ooo  XXXXXXXX OOOOOOOOOOOOOOOOOOOO ",
" OOOoo XXXXX OOO XXX  oooo X oooo XXXXXXXX OOOOOOOOOOOOOOOOOOOO ",
" OOOoo XXXXX OO XXX  ooooo X Ooooo  XXXXXXX OOOOOOOOOOOOOOOOOOO ",
" OOOoo XXXXX O XXXX oooooo X OOOOooo XXXXXX OOOOOOOOOOOOOOOOOOO ",
" OOOoo XXXXX o XXX  OOOOoo X OOOOOoo XXXXXX OOOOOOOOOOOOOOOOOOO ",
" OOOoo XXXXX o XX  OOOOOoo X OOOOOoo XXXXXX OOOOOOOOOOOOOOOOOOO ",
" OOOoo XXXXX o XX OOOOOOoo X OOOOOooo XXXXXX OOOOOOOOOOOOOOOOOO ",
" OOOoo XXXXX o XX OOOOOOoo XX OOOOOoo XXXXXX OOOOOOOOOOOOOOOOOO ",
" OOOooo XXXX o XX OOOOOOooo X OOOOOoo XXXXXX OOOOOOOOOOOOOOOOOO ",
" OOOooo XXXX o XX OOOOOOooo X OOOOOOo XXXXXX OOOOOOOOOOOOOOOOOO ",
" OOOooo XXXX o XX OOOOOOooo X OOOOOOo XXXXXX OOOOOOOOOOOOOOOOOO ",
" OOOoooo XXX o  X OOOOOOooo X OOOOOOo XXXXXX OOOOOOOOOOOOOOOOOO ",
" OOOoooo XXX oo XX OOOOOooo X OOOOOOo XXXXX OOOOOOOOOOOOOOOOOOO ",
" OOOOooo XXX Ooo X OOOOOOoo XX OOOOOo XXXX OOOOOOOOOOOOOOOOOOOO ",
" OOOOoooo XXX OO X OOOOOOooo X OOOOOo XXXX OOOOOOOOOOOOOOOOOOOO ",
" OOOOOooo XXX  OO X OOOOOOoo X OOOOO  XXXX OOOOOOOOOOOOOOOOOOOO ",
" OOOOOooo  XXXX Oo OOOOOOOoo X OOOOO XXXX OOOOOOOOOOOOOOOOOOOOO ",
" OOOOOoooo XXXX OOOOOOOOOOoo X OOOO XXXXX OOOOOOOOOOOOOOOOOOOOO ",
" OOOOOOoooo  XX OOOOOOOOOOoo X OOOO XXXXX OOOOOOOOOOOOOOOOOOOOO ",
" OOOOOOOoooo   X  OOOOOOOOoo X OO  XXXXX OOOOOOOOOOOOOOOOOOOOOO ",
" OOOOOOOOooooo XXX OOOOOOOoo X O XXXXX  OOOOOOOOOOOOOOOOOOOOOOO ",
" OOOOOOOOOOooo  XXX  OOOOOoo X  XXXXX OOOOOOOOOOOOOOOOOOOOOOOOO ",
" OOOOOOOOOOoooo   XXX        XXXXXXX OOOOOOOOOOOOOOOOOOOOOOOOOO ",
" OOOOOOOOOOOoooooo  XXXXXXXXXXXXX   OOOOOOOOOOOOOOOOOOOOOOOOOOO ",
" OOOOOOOOOOOOOooooo           XX OOOOOOOOOOOOOOOOOOOOOOOOOOOOOO ",
" OOOOOOOOOOOOOOOOoooooooooooo XX OOOOOOOOOOOOOOOOOOOOOOOOOOOOOO ",
" OOOOOOOOOOOOOOOOOooooooooooo XX OOOOOOOOOOOOOOOOOOOOOOOOOOOOOO ",
" OOOOOOOOOOOOOOOOOOOOOOoooooo XX OOOOOOOOOOOOOOOOOOOOOOOOOOOOOO ",
"                                                                "
};
